# xmcd CD database file
#
# Track frame offsets:
#	150
#	16533
#	35568
#	61130
#	83435
#	103316
#	121790
#	145613
#	167626
#
# Disc length: 2445 seconds
#
# Revision: 0
# Processed by: cddbd v1.5.2PL0 Copyright (c) Steve Scherf et al.
# Submitted via: CDex 1.70beta2
#
DISCID=61098b09
DTITLE=IRON ATTACK! × Kissing the Mirror - BLADE OF ANCIENT TEMPLE
DYEAR=2008
DGENRE=東方アレンジ
TTITLE0=DEAMON ERASER (恋色マスタースパーク）
TTITLE1=The Guardian of Evil Palace （上海紅茶館）
TTITLE2=Your Death Will Never Come (エクステンドアッシュ）
TTITLE3=ELECTRIC APPARITION (東方妖々夢）
TTITLE4=CRYING PHANTOM （幽霊楽団）
TTITLE5=Night at Enigmatic Garden （Demystify Feast）
TTITLE6=Insanity of Crimson Eyes （シンデレラケージ）
TTITLE7=WALTZ OF PUPPET （広有射怪鳥事）
TTITLE8=SPINNING WHEEL OF MEMORIES （おてんば恋娘）
EXTD=YEAR: 2008
EXTT0=
EXTT1=
EXTT2=
EXTT3=
EXTT4=
EXTT5=
EXTT6=
EXTT7=
EXTT8=
PLAYORDER=
